<<<<<<< HEAD
<svg xmlns="http://www.w3.org/2000/svg" viewBox="0 0 64 64" width="64" height="64">
  <circle cx="32" cy="32" r="30" fill="#9575cd"/>
  <circle cx="32" cy="26" r="12" fill="#ffffff"/>
  <path d="M32,50 C26,50 18,46 18,36 L46,36 C46,46 38,50 32,50 Z" fill="#ffffff"/>
  <rect x="24" y="11" width="16" height="4" fill="#673ab7"/>
  <rect x="18" y="15" width="28" height="3" fill="#673ab7"/>
  <rect x="16" y="48" width="32" height="4" fill="#673ab7"/>
  <rect x="28" y="42" width="8" height="2" fill="#673ab7"/>
=======
<svg xmlns="http://www.w3.org/2000/svg" viewBox="0 0 64 64" width="64" height="64">
  <circle cx="32" cy="32" r="30" fill="#9575cd"/>
  <circle cx="32" cy="26" r="12" fill="#ffffff"/>
  <path d="M32,50 C26,50 18,46 18,36 L46,36 C46,46 38,50 32,50 Z" fill="#ffffff"/>
  <rect x="24" y="11" width="16" height="4" fill="#673ab7"/>
  <rect x="18" y="15" width="28" height="3" fill="#673ab7"/>
  <rect x="16" y="48" width="32" height="4" fill="#673ab7"/>
  <rect x="28" y="42" width="8" height="2" fill="#673ab7"/>
>>>>>>> 49b5edb54a73de8a79d0d5bdb403fee82a99512f
</svg> 